<svg width="111" height="48" viewBox="0 0 111 58" fill="none" xmlns="http://www.w3.org/2000/svg">
<path d="M 12.32 1.68 L 15.456 1.68 A 0.685 0.685 0 0 1 15.644 1.704 Q 15.856 1.764 15.912 1.98 A 0.701 0.701 0 0 1 15.932 2.156 L 15.932 19.208 A 0.685 0.685 0 0 1 15.908 19.396 Q 15.848 19.608 15.632 19.664 A 0.701 0.701 0 0 1 15.456 19.684 L 13.72 19.684 A 0.685 0.685 0 0 1 13.532 19.66 Q 13.32 19.6 13.264 19.384 A 0.701 0.701 0 0 1 13.244 19.208 L 13.244 5.068 L 13.132 5.068 L 9.492 15.316 A 0.831 0.831 0 0 1 9.372 15.538 Q 9.208 15.746 8.925 15.763 A 0.851 0.851 0 0 1 8.876 15.764 L 7.084 15.764 Q 6.664 15.764 6.496 15.316 L 2.772 5.04 L 2.66 5.04 L 2.66 19.208 A 1.254 1.254 0 0 1 2.654 19.333 Q 2.642 19.459 2.601 19.533 A 0.232 0.232 0 0 1 2.562 19.586 Q 2.48 19.668 2.269 19.682 A 1.363 1.363 0 0 1 2.184 19.684 L 0.476 19.684 A 0.685 0.685 0 0 1 0.288 19.66 Q 0.076 19.6 0.02 19.384 A 0.701 0.701 0 0 1 0 19.208 L 0 2.156 A 0.685 0.685 0 0 1 0.024 1.968 Q 0.084 1.756 0.3 1.7 A 0.701 0.701 0 0 1 0.476 1.68 L 3.612 1.68 Q 3.92 1.68 4.06 1.988 L 7.896 12.796 L 8.036 12.796 L 11.9 1.988 Q 11.955 1.688 12.302 1.68 A 0.834 0.834 0 0 1 12.32 1.68 Z M 46.144 19.684 L 44.38 19.684 A 0.685 0.685 0 0 1 44.192 19.66 Q 43.98 19.6 43.924 19.384 A 0.701 0.701 0 0 1 43.904 19.208 L 43.904 0.476 A 0.685 0.685 0 0 1 43.928 0.288 Q 43.988 0.076 44.204 0.02 A 0.701 0.701 0 0 1 44.38 0 L 46.144 0 A 0.685 0.685 0 0 1 46.332 0.024 Q 46.544 0.084 46.6 0.3 A 0.701 0.701 0 0 1 46.62 0.476 L 46.62 6.888 L 46.732 6.888 Q 47.404 5.404 49.56 5.404 L 50.792 5.404 A 5.97 5.97 0 0 1 52.031 5.525 Q 52.794 5.687 53.373 6.066 A 3.311 3.311 0 0 1 53.928 6.524 Q 54.896 7.517 55.006 9.281 A 7.464 7.464 0 0 1 55.02 9.744 L 55.02 19.208 Q 55.02 19.684 54.516 19.684 L 52.752 19.684 A 0.685 0.685 0 0 1 52.564 19.66 Q 52.352 19.6 52.296 19.384 A 0.701 0.701 0 0 1 52.276 19.208 L 52.276 9.856 Q 52.276 7.784 50.232 7.784 L 48.916 7.784 A 3.178 3.178 0 0 0 47.994 7.906 Q 46.98 8.214 46.714 9.298 A 3.65 3.65 0 0 0 46.62 10.164 L 46.62 19.208 A 0.685 0.685 0 0 1 46.596 19.396 Q 46.536 19.608 46.32 19.664 A 0.701 0.701 0 0 1 46.144 19.684 Z M 84.336 19.684 L 79.184 19.684 A 0.685 0.685 0 0 1 78.996 19.66 Q 78.784 19.6 78.728 19.384 A 0.701 0.701 0 0 1 78.708 19.208 L 78.708 17.836 A 0.606 0.606 0 0 1 78.733 17.656 Q 78.794 17.458 79.011 17.406 A 0.747 0.747 0 0 1 79.184 17.388 L 83.888 17.388 A 3.892 3.892 0 0 0 84.53 17.34 Q 85.668 17.149 85.707 16.196 A 1.675 1.675 0 0 0 85.708 16.128 L 85.708 15.792 A 1.623 1.623 0 0 0 85.043 14.468 Q 84.794 14.271 84.451 14.111 A 3.971 3.971 0 0 0 84.392 14.084 L 81.34 12.628 A 8.801 8.801 0 0 1 80.487 12.172 Q 79.701 11.69 79.268 11.144 A 2.854 2.854 0 0 1 78.739 10.037 Q 78.638 9.629 78.626 9.153 A 5.219 5.219 0 0 1 78.624 9.016 A 4.647 4.647 0 0 1 78.844 7.521 Q 79.545 5.454 82.483 5.405 A 8.638 8.638 0 0 1 82.628 5.404 L 87.276 5.404 A 0.606 0.606 0 0 1 87.456 5.429 Q 87.654 5.49 87.706 5.707 A 0.747 0.747 0 0 1 87.724 5.88 L 87.724 7.252 A 0.731 0.731 0 0 1 87.703 7.437 Q 87.641 7.672 87.4 7.717 A 0.676 0.676 0 0 1 87.276 7.728 L 83.188 7.728 Q 82.657 7.728 82.282 7.846 A 1.526 1.526 0 0 0 81.9 8.022 A 1.137 1.137 0 0 0 81.65 8.24 A 0.833 0.833 0 0 0 81.452 8.792 L 81.452 9.1 Q 81.452 9.996 82.88 10.668 L 85.96 12.236 A 6.951 6.951 0 0 1 86.781 12.661 Q 87.177 12.905 87.47 13.175 A 2.841 2.841 0 0 1 87.962 13.762 A 3.395 3.395 0 0 1 88.362 14.734 Q 88.508 15.319 88.508 16.044 Q 88.508 19.684 84.336 19.684 Z M 34.496 7.784 L 33.152 7.784 A 1.254 1.254 0 0 1 33.027 7.778 Q 32.901 7.766 32.827 7.725 A 0.232 0.232 0 0 1 32.774 7.686 Q 32.676 7.588 32.676 7.336 L 32.676 5.88 A 0.685 0.685 0 0 1 32.7 5.692 Q 32.76 5.48 32.976 5.424 A 0.701 0.701 0 0 1 33.152 5.404 L 34.496 5.404 A 0.403 0.403 0 0 0 34.607 5.39 Q 34.731 5.355 34.764 5.228 A 0.413 0.413 0 0 0 34.776 5.124 L 34.776 2.604 Q 34.776 2.128 35.28 2.128 L 37.044 2.128 A 0.685 0.685 0 0 1 37.232 2.152 Q 37.444 2.212 37.5 2.428 A 0.701 0.701 0 0 1 37.52 2.604 L 37.52 5.124 A 0.363 0.363 0 0 0 37.537 5.24 Q 37.592 5.404 37.828 5.404 L 40.432 5.404 Q 40.861 5.404 40.925 5.749 A 0.722 0.722 0 0 1 40.936 5.88 L 40.936 7.336 A 0.569 0.569 0 0 1 40.908 7.521 Q 40.822 7.774 40.462 7.784 A 1.084 1.084 0 0 1 40.432 7.784 L 37.828 7.784 Q 37.566 7.784 37.527 7.988 A 0.41 0.41 0 0 0 37.52 8.064 L 37.52 15.26 A 2.855 2.855 0 0 0 37.627 16.08 Q 37.899 16.984 38.856 17.22 A 3.193 3.193 0 0 0 39.62 17.304 L 40.712 17.304 Q 41.141 17.304 41.205 17.649 A 0.722 0.722 0 0 1 41.216 17.78 L 41.216 19.236 A 0.569 0.569 0 0 1 41.188 19.421 Q 41.102 19.674 40.742 19.684 A 1.084 1.084 0 0 1 40.712 19.684 L 39.2 19.684 A 6.183 6.183 0 0 1 37.881 19.552 Q 37.013 19.362 36.362 18.901 A 3.656 3.656 0 0 1 35.952 18.564 Q 34.803 17.469 34.777 15.492 A 6.999 6.999 0 0 1 34.776 15.4 L 34.776 8.064 A 0.403 0.403 0 0 0 34.762 7.953 Q 34.727 7.829 34.6 7.796 A 0.413 0.413 0 0 0 34.496 7.784 Z M 24.892 19.684 L 23.8 19.684 A 6 6 0 0 1 22.514 19.555 Q 21.347 19.298 20.594 18.536 A 3.776 3.776 0 0 1 19.626 16.778 Q 19.46 16.127 19.46 15.344 L 19.46 9.744 A 6.071 6.071 0 0 1 19.588 8.458 Q 19.766 7.637 20.191 7.022 A 3.471 3.471 0 0 1 20.594 6.538 A 3.694 3.694 0 0 1 22.271 5.591 Q 22.851 5.433 23.541 5.409 A 7.254 7.254 0 0 1 23.8 5.404 L 30.072 5.404 Q 30.501 5.404 30.565 5.749 A 0.722 0.722 0 0 1 30.576 5.88 L 30.576 19.208 Q 30.576 19.684 30.072 19.684 L 28.308 19.684 A 0.685 0.685 0 0 1 28.12 19.66 Q 27.908 19.6 27.852 19.384 A 0.701 0.701 0 0 1 27.832 19.208 L 27.832 18.2 L 27.72 18.2 Q 27.048 19.684 24.892 19.684 Z M 70.056 19.684 L 68.964 19.684 A 6 6 0 0 1 67.678 19.555 Q 66.511 19.298 65.758 18.536 A 3.776 3.776 0 0 1 64.79 16.778 Q 64.624 16.127 64.624 15.344 L 64.624 9.744 A 6.071 6.071 0 0 1 64.752 8.458 Q 64.93 7.637 65.355 7.022 A 3.471 3.471 0 0 1 65.758 6.538 A 3.694 3.694 0 0 1 67.435 5.591 Q 68.015 5.433 68.705 5.409 A 7.254 7.254 0 0 1 68.964 5.404 L 75.236 5.404 Q 75.665 5.404 75.729 5.749 A 0.722 0.722 0 0 1 75.74 5.88 L 75.74 19.208 Q 75.74 19.684 75.236 19.684 L 73.472 19.684 A 0.685 0.685 0 0 1 73.284 19.66 Q 73.072 19.6 73.016 19.384 A 0.701 0.701 0 0 1 72.996 19.208 L 72.996 18.2 L 72.884 18.2 Q 72.212 19.684 70.056 19.684 Z M 58.52 19.208 L 58.52 5.88 A 0.731 0.731 0 0 1 58.541 5.695 Q 58.603 5.46 58.844 5.415 A 0.676 0.676 0 0 1 58.968 5.404 L 60.76 5.404 A 0.685 0.685 0 0 1 60.948 5.428 Q 61.16 5.488 61.216 5.704 A 0.701 0.701 0 0 1 61.236 5.88 L 61.236 19.208 A 1.254 1.254 0 0 1 61.23 19.333 Q 61.218 19.459 61.177 19.533 A 0.232 0.232 0 0 1 61.138 19.586 Q 61.04 19.684 60.788 19.684 L 58.996 19.684 A 0.685 0.685 0 0 1 58.808 19.66 Q 58.596 19.6 58.54 19.384 A 0.701 0.701 0 0 1 58.52 19.208 Z M 27.832 14.924 L 27.832 8.064 A 0.363 0.363 0 0 0 27.815 7.948 Q 27.76 7.784 27.524 7.784 L 24.192 7.784 A 2.815 2.815 0 0 0 23.384 7.89 Q 22.176 8.252 22.176 9.856 L 22.176 15.232 A 3.078 3.078 0 0 0 22.273 16.039 Q 22.617 17.304 24.192 17.304 L 25.536 17.304 A 3.178 3.178 0 0 0 26.459 17.182 Q 27.473 16.874 27.738 15.79 A 3.65 3.65 0 0 0 27.832 14.924 Z M 72.996 14.924 L 72.996 8.064 A 0.363 0.363 0 0 0 72.979 7.948 Q 72.924 7.784 72.688 7.784 L 69.356 7.784 A 2.815 2.815 0 0 0 68.548 7.89 Q 67.34 8.252 67.34 9.856 L 67.34 15.232 A 3.078 3.078 0 0 0 67.437 16.039 Q 67.781 17.304 69.356 17.304 L 70.7 17.304 A 3.178 3.178 0 0 0 71.623 17.182 Q 72.637 16.874 72.902 15.79 A 3.65 3.65 0 0 0 72.996 14.924 Z M 58.52 3.024 L 58.52 0.476 A 0.645 0.645 0 0 1 58.542 0.299 Q 58.599 0.1 58.802 0.047 A 0.66 0.66 0 0 1 58.968 0.028 L 60.788 0.028 A 0.645 0.645 0 0 1 60.965 0.05 Q 61.164 0.107 61.217 0.31 A 0.66 0.66 0 0 1 61.236 0.476 L 61.236 3.024 A 0.731 0.731 0 0 1 61.215 3.209 Q 61.153 3.444 60.912 3.489 A 0.676 0.676 0 0 1 60.788 3.5 L 58.968 3.5 A 0.606 0.606 0 0 1 58.788 3.476 Q 58.59 3.414 58.538 3.197 A 0.747 0.747 0 0 1 58.52 3.024 Z" fill="url(#paint0_linear_994_94)"/>
<path d="M 59.28 25.95 L 57.69 25.95 A 0.734 0.734 0 0 1 57.488 25.925 Q 57.262 25.86 57.202 25.629 A 0.751 0.751 0 0 1 57.18 25.44 L 57.18 23.91 A 0.826 0.826 0 0 1 57.204 23.7 Q 57.275 23.433 57.55 23.382 A 0.773 0.773 0 0 1 57.69 23.37 L 58.38 23.37 Q 59.908 23.37 60.652 22.868 A 1.691 1.691 0 0 0 60.915 22.65 Q 61.62 21.93 62.1 20.28 L 60.9 20.28 A 0.596 0.596 0 0 1 60.549 20.176 Q 60.438 20.098 60.358 19.962 A 1.102 1.102 0 0 1 60.27 19.77 L 56.28 6.3 A 0.958 0.958 0 0 1 56.265 6.224 Q 56.204 5.821 56.606 5.792 A 0.903 0.903 0 0 1 56.67 5.79 L 58.68 5.79 A 0.671 0.671 0 0 1 58.93 5.834 Q 59.195 5.939 59.28 6.3 L 62.55 18.06 L 62.67 18.06 L 65.94 6.3 A 0.79 0.79 0 0 1 66.013 6.074 Q 66.134 5.839 66.416 5.798 A 0.873 0.873 0 0 1 66.54 5.79 L 68.46 5.79 A 0.875 0.875 0 0 1 68.645 5.808 Q 69.014 5.888 68.94 6.33 L 64.83 20.76 Q 64.328 22.595 63.523 23.802 A 6.161 6.161 0 0 1 62.88 24.615 A 4.083 4.083 0 0 1 60.887 25.761 Q 60.16 25.95 59.28 25.95 Z M 9.54 21.09 L 7.65 21.09 A 0.734 0.734 0 0 1 7.448 21.065 Q 7.222 21 7.162 20.769 A 0.751 0.751 0 0 1 7.14 20.58 L 7.14 6.3 A 0.734 0.734 0 0 1 7.165 6.098 Q 7.23 5.872 7.461 5.812 A 0.751 0.751 0 0 1 7.65 5.79 L 9.54 5.79 A 0.734 0.734 0 0 1 9.742 5.815 Q 9.968 5.88 10.028 6.111 A 0.751 0.751 0 0 1 10.05 6.3 L 10.05 7.38 L 10.17 7.38 A 2.531 2.531 0 0 1 11.883 5.953 Q 12.46 5.79 13.2 5.79 L 14.52 5.79 Q 16.204 5.79 17.285 6.5 A 3.548 3.548 0 0 1 17.88 6.99 A 3.873 3.873 0 0 1 18.81 8.617 Q 19.05 9.421 19.05 10.44 L 19.05 20.58 A 0.692 0.692 0 0 1 19.022 20.785 Q 18.952 21.01 18.707 21.069 A 0.845 0.845 0 0 1 18.51 21.09 L 16.62 21.09 A 0.734 0.734 0 0 1 16.418 21.065 Q 16.192 21 16.132 20.769 A 0.751 0.751 0 0 1 16.11 20.58 L 16.11 10.56 A 3.255 3.255 0 0 0 16.005 9.695 Q 15.631 8.34 13.92 8.34 L 12.51 8.34 Q 10.548 8.34 10.151 9.962 A 3.911 3.911 0 0 0 10.05 10.89 L 10.05 20.58 A 0.734 0.734 0 0 1 10.025 20.782 Q 9.96 21.008 9.729 21.068 A 0.751 0.751 0 0 1 9.54 21.09 Z M 28.11 21.09 L 22.59 21.09 A 0.734 0.734 0 0 1 22.388 21.065 Q 22.162 21 22.102 20.769 A 0.751 0.751 0 0 1 22.08 20.58 L 22.08 19.11 Q 22.08 18.63 22.59 18.63 L 27.63 18.63 Q 29.58 18.63 29.58 17.28 L 29.58 16.92 A 1.739 1.739 0 0 0 28.867 15.502 Q 28.6 15.29 28.233 15.119 A 4.254 4.254 0 0 0 28.17 15.09 L 24.9 13.53 Q 23.868 13.044 23.218 12.49 A 3.969 3.969 0 0 1 22.68 11.94 Q 22.026 11.116 21.992 9.807 A 5.591 5.591 0 0 1 21.99 9.66 A 4.979 4.979 0 0 1 22.226 8.059 Q 22.996 5.79 26.28 5.79 L 31.26 5.79 Q 31.74 5.79 31.74 6.3 L 31.74 7.77 A 0.783 0.783 0 0 1 31.717 7.968 Q 31.651 8.22 31.393 8.269 A 0.724 0.724 0 0 1 31.26 8.28 L 26.88 8.28 A 4.129 4.129 0 0 0 26.365 8.31 Q 25.832 8.377 25.5 8.595 A 1.218 1.218 0 0 0 25.232 8.829 A 0.893 0.893 0 0 0 25.02 9.42 L 25.02 9.75 Q 25.02 10.71 26.55 11.43 L 29.85 13.11 Q 31.41 13.8 31.995 14.745 A 3.638 3.638 0 0 1 32.423 15.786 Q 32.538 16.247 32.569 16.788 A 7.129 7.129 0 0 1 32.58 17.19 A 4.842 4.842 0 0 1 32.326 18.827 Q 31.515 21.09 28.11 21.09 Z M 53.52 21.09 L 47.04 21.09 Q 45.235 21.09 44.094 20.277 A 3.731 3.731 0 0 1 43.605 19.86 A 4.045 4.045 0 0 1 42.568 17.976 Q 42.407 17.344 42.392 16.596 A 7.712 7.712 0 0 1 42.39 16.44 L 42.39 10.44 Q 42.39 8.22 43.605 7.005 A 3.958 3.958 0 0 1 45.402 5.991 Q 46.023 5.821 46.762 5.795 A 7.772 7.772 0 0 1 47.04 5.79 L 49.5 5.79 A 6.513 6.513 0 0 1 50.895 5.93 Q 51.803 6.13 52.481 6.611 A 3.787 3.787 0 0 1 52.95 7.005 A 3.959 3.959 0 0 1 53.989 8.845 Q 54.156 9.474 54.177 10.224 A 7.75 7.75 0 0 1 54.18 10.44 L 54.18 14.25 Q 54.18 14.679 53.84 14.767 A 0.796 0.796 0 0 1 53.64 14.79 L 45.6 14.79 A 0.526 0.526 0 0 0 45.474 14.804 Q 45.308 14.845 45.277 15.008 A 0.439 0.439 0 0 0 45.27 15.09 L 45.27 16.38 A 3.153 3.153 0 0 0 45.379 17.247 Q 45.758 18.57 47.46 18.57 L 53.52 18.57 Q 53.949 18.57 54.037 18.91 A 0.796 0.796 0 0 1 54.06 19.11 L 54.06 20.61 A 0.609 0.609 0 0 1 54.03 20.809 Q 53.937 21.079 53.552 21.09 A 1.161 1.161 0 0 1 53.52 21.09 Z M 38.25 21.09 L 36.36 21.09 A 0.734 0.734 0 0 1 36.158 21.065 Q 35.932 21 35.872 20.769 A 0.751 0.751 0 0 1 35.85 20.58 L 35.85 0.51 A 0.734 0.734 0 0 1 35.875 0.308 Q 35.94 0.082 36.171 0.022 A 0.751 0.751 0 0 1 36.36 0 L 38.25 0 A 0.734 0.734 0 0 1 38.452 0.025 Q 38.678 0.09 38.738 0.321 A 0.751 0.751 0 0 1 38.76 0.51 L 38.76 20.58 A 0.734 0.734 0 0 1 38.735 20.782 Q 38.67 21.008 38.439 21.068 A 0.751 0.751 0 0 1 38.25 21.09 Z M 2.91 2.31 L 2.91 20.58 A 0.734 0.734 0 0 1 2.885 20.782 Q 2.82 21.008 2.589 21.068 A 0.751 0.751 0 0 1 2.4 21.09 L 0.51 21.09 A 0.734 0.734 0 0 1 0.308 21.065 Q 0.082 21 0.022 20.769 A 0.751 0.751 0 0 1 0 20.58 L 0 2.31 A 0.734 0.734 0 0 1 0.025 2.108 Q 0.09 1.882 0.321 1.822 A 0.751 0.751 0 0 1 0.51 1.8 L 2.4 1.8 A 0.734 0.734 0 0 1 2.602 1.825 Q 2.828 1.89 2.888 2.121 A 0.751 0.751 0 0 1 2.91 2.31 Z M 45.6 12.75 L 50.97 12.75 A 0.432 0.432 0 0 0 51.089 12.735 Q 51.222 12.697 51.257 12.561 A 0.442 0.442 0 0 0 51.27 12.45 L 51.27 10.53 Q 51.27 9.851 51.089 9.39 A 1.562 1.562 0 0 0 50.76 8.865 Q 50.25 8.34 49.11 8.34 L 47.46 8.34 A 3.912 3.912 0 0 0 46.869 8.382 Q 46.566 8.428 46.325 8.526 A 1.497 1.497 0 0 0 45.81 8.865 A 1.576 1.576 0 0 0 45.471 9.418 Q 45.3 9.871 45.3 10.53 L 45.3 12.45 A 0.432 0.432 0 0 0 45.315 12.569 Q 45.353 12.702 45.489 12.737 A 0.442 0.442 0 0 0 45.6 12.75 Z" fill="white" transform="translate(0,28)"/>

<defs>
<linearGradient id="paint0_linear_994_94" x1="0" y1="0" x2="77.8461" y2="9.73773" gradientUnits="userSpaceOnUse">
<stop offset="0.183111" stop-color="#e4ad5f"/>
<stop offset="0.432593" stop-color="#89946a"/>
<stop offset="0.854443" stop-color="#668b6e"/>
<stop offset="1" stop-color="#097279"/>
</linearGradient>
</defs>
</svg>
